PathFileType	4	(X/Y/Z)	TRC_missing_Z7.trc
DataRate	CameraRate	NumFrames	NumMarkers	Units	OrigDataRate	OrigDataStartFrame	OrigNumFrames
100.0	100.0	5	37	mm	100.0	979	2609	
Frame#	Time	T10			C7			CLAV			RACR1			LACR1			RPSI			LPSI			RASI			LASI			LTH2			LTH3			LTH1			RTH2			RTH3			RTH1			RLFC			RMFC			RTB1			RTB3			RTB2			LLFC			LMFC			LTB1			LTB3			LTB2			LLMAL			LCAL			LMMAL			RLMAL			RMMAL			RCAL			RMT5			RMT1			RToe			LMT5			LMT1			LToe			
		X1	Y1	Z1	X2	Y2	Z2	X3	Y3	Z3	X4	Y4	Z4	X5	Y5	Z5	X6	Y6	Z6	X7	Y7	X8	Y8	Z8	X9	Y9	Z9	X10	Y10	Z10	X11	Y11	Z11	X12	Y12	Z12	X13	Y13	Z13	X14	Y14	Z14	X15	Y15	Z15	X16	Y16	Z16	X17	Y17	Z17	X18	Y18	Z18	X19	Y19	Z19	X20	Y20	Z20	X21	Y21	Z21	X22	Y22	Z22	X23	Y23	Z23	X24	Y24	Z24	X25	Y25	Z25	X26	Y26	Z26	X27	Y27	Z27	X28	Y28	Z28	X29	Y29	Z29	X30	Y30	Z30	X31	Y31	Z31	X32	Y32	Z32	X33	Y33	Z33	X34	Y34	Z34	X35	Y35	Z35	X36	Y36	Z36	X37	Y37	Z37	
979	9.78	734.75018	1218.3019	-521.92657	720.86591	1470.348	-389.96289	720.2251	1309.0348	-296.86206	560.56531	1417.7036	-381.15179	897.03839	1410.6602	-358.55139	664.72467	1000.2158	-601.34247	752.05914	1010.6369	-597.88318	589.59924	960.94476	-373.79947	843.69922	960.2182	-365.14679	865.76605	686.21375	-463.59442	903.0863	756.02588	-467.0787	867.81628	824.03809	-396.22943	579.43262	735.58838	-290.09387	533.24255	780.81335	-348.87195	606.55896	840.10254	-329.35941	574.02173	518.24188	-275.23578				614.65564	418.66501	-213.47551	595.45007	337.86102	-232.52174	620.00909	287.63898	-219.11754	842.28516	493.49716	-583.36273				786.31531	375.47354	-589.16626	813.98767	319.16003	-633.81573	769.74225	270.05902	-647.28278	785.16663	109.54395	-777.703	739.05402	85.711082	-844.37408				616.43573	87.773521	-252.98885				665.09698	36.275681	-304.34555	613.17413	68.318497	-139.51422	683.41406	86.666199	-116.61698				809.33826	39.005096	-675.32941	737.77563	50.78603	-643.08655			
980	9.79	733.68036	1218.0143	-521.16254	719.68414	1470.203	-389.43704	719.26178	1308.9871	-296.09271	559.40948	1417.34	-380.39532	895.88318	1410.7406	-358.04865	663.21057	1000.1718	-600.07074	750.57843	1010.5448	-596.93829	589.10486	960.66925	-372.28763	843.26233	959.89105	-364.59277	865.55463	685.93628	-465.31308	902.43018	755.88849	-467.95181	867.40417	823.53271	-396.35007	580.3006	734.66504	-289.02185	533.57874	780.04492	-347.28394	606.74921	839.53693	-327.79321	575.14856	517.24469	-275.017				616.46747	417.74194	-213.46559	596.8609	336.8623	-231.99037	621.54187	286.67551	-218.75587	841.92218	493.78189	-585.56567				786.32135	375.63098	-592.67163	814.09692	320.07648	-638.15759	769.89294	270.99438	-652.14551	785.48798	112.1699	-784.80145	739.24854	89.638687	-851.77191				617.21887	86.73613	-252.27025				665.31329	35.151424	-304.1933	614.98389	67.399269	-138.83636	685.51672	85.496063	-116.60864				809.27539	38.940254	-683.78729	737.80444	50.594093	-651.5589			
981	9.8	732.55225	1217.7751	-520.31213	718.45837	1470.1112	-388.83023	718.26923	1308.9968	-295.23465	558.21063	1417.026	-379.5004	894.6925	1410.8881	-357.48798	661.66803	1000.1813	-598.6947	749.07538	1010.4802	-595.896	588.58557	960.45007	-370.67142	842.79071	959.6095	-363.94809	865.36249	685.63892	-466.71741	901.75739	755.73779	-468.49368	866.9646	823.07916	-396.29041	581.17767	733.73956	-287.87964	533.91827	779.31854	-345.59033	606.93884	838.97894	-326.12271	576.2088	516.20172	-274.92273				618.23846	416.66348	-213.86243	598.23822	335.77975	-232.06746	623.04523	285.60428	-219.15521	841.57404	493.99457	-587.30493				786.38586	375.72684	-595.75262	814.24957	320.99072	-642.13397	770.10339	271.92792	-656.65411	785.86102	114.93895	-791.68317	739.46606	93.815468	-858.90045				617.9801	85.73912	-252.91208				665.51306	34.23914	-305.53073	616.71783	66.212166	-139.63254	687.55121	83.961914	-117.97661				809.19708	38.880779	-692.27277	737.8385	50.377583	-660.06335			
982	9.81	731.36993	1217.5878	-519.38306	717.19489	1470.0742	-388.14758	717.2536	1309.0657	-294.29514	556.97552	1416.7659	-378.4725	893.47247	1411.1027	-356.87451	660.09991	1000.2463	-597.22491	747.55255	1010.4434	-594.76581	588.04022	960.29279	-368.96115	842.28271	959.37518	-363.22067	865.17847	685.32703	-467.77063	901.06091	755.57239	-468.71329	866.49347	822.68164	-396.05222	582.04956	732.82532	-286.67761	534.25012	778.64484	-343.80374	607.11823	838.43842	-324.36057	577.19629	515.12732	-274.95099				619.95544	415.44788	-214.64342	599.57178	334.62289	-232.71889	624.50684	284.43552	-220.26576	841.2522	494.12967	-588.56042				786.52258	375.758	-598.38489	814.45374	321.90106	-645.71759	770.3869	272.85831	-660.77997	786.29095	117.8559	-798.30817	739.70923	98.2556	-865.70691				618.7074	84.777412	-254.81766				665.68439	33.519405	-308.24448	618.35352	64.78756	-141.78966	689.49622	82.102219	-120.605				809.09937	38.834808	-700.78662	737.87567	50.13916	-668.60309			
983	9.82	730.13806	1217.4547	-518.38379	715.90045	1470.0931	-387.39526	716.2215	1309.1953	-293.28244	555.71191	1416.5629	-377.3186	892.22986	1411.384	-356.21487	658.50946	1000.3682	-595.67291	746.01276	1010.435	-593.55798	587.46759	960.20233	-367.16827	841.73615	959.19006	-362.41943	864.99237	685.00793	-468.43802	900.33447	755.39337	-468.62411	865.98694	822.34497	-395.63937	582.90021	731.93311	-285.42975	534.56256	778.0318	-341.94046	607.27655	837.92358	-322.52188	578.10535	514.03442	-275.10272				621.6059	414.11447	-215.78603	600.85132	333.40222	-233.90781	625.91528	283.18198	-222.03348	840.9693	494.18304	-589.31366				786.74506	375.72253	-600.54498	814.71747	322.80627	-648.88123	770.75659	273.7851	-664.49353	786.78265	120.92521	-804.63324	739.98041	102.97183	-872.13489				619.38916	83.849609	-257.87695				665.81586	32.974022	-312.2056	619.87085	63.165226	-145.17975	691.33325	79.965874	-124.3659				808.97906	38.813053	-709.32562	737.91394	49.883762	-677.17682			
